<svg width="14" height="15" viewBox="0 0 14 15" fill="none" xmlns="http://www.w3.org/2000/svg">
<path d="M6.9974 6.33317C8.28606 6.33317 9.33073 5.2885 9.33073 3.99984C9.33073 2.71117 8.28606 1.6665 6.9974 1.6665C5.70873 1.6665 4.66406 2.71117 4.66406 3.99984C4.66406 5.2885 5.70873 6.33317 6.9974 6.33317Z" stroke="#1E1E1E"/>
<path d="M11.6678 11.0002C11.6693 10.9044 11.6693 10.8071 11.6693 10.7085C11.6693 9.25874 9.57995 8.0835 7.0026 8.0835C4.42527 8.0835 2.33594 9.25874 2.33594 10.7085C2.33594 12.1583 2.33594 13.3335 7.0026 13.3335C8.30402 13.3335 9.24249 13.2421 9.91927 13.0788" stroke="#1E1E1E" stroke-linecap="round"/>
</svg>
