<svg width="14" height="15" viewBox="0 0 14 15" fill="none" xmlns="http://www.w3.org/2000/svg">
<path d="M1.75 5.74992V12.1666C1.75 12.3213 1.81146 12.4697 1.92085 12.5791C2.03025 12.6885 2.17862 12.7499 2.33333 12.7499H11.6667C11.8214 12.7499 11.9697 12.6885 12.0791 12.5791C12.1885 12.4697 12.25 12.3213 12.25 12.1666V5.74992M1.75 5.74992H12.25M1.75 5.74992V3.41659C1.75 3.26188 1.81146 3.1135 1.92085 3.00411C2.03025 2.89471 2.17862 2.83325 2.33333 2.83325H11.6667C11.8214 2.83325 11.9697 2.89471 12.0791 3.00411C12.1885 3.1135 12.25 3.26188 12.25 3.41659V5.74992" stroke="#1E1E1E" stroke-linecap="round" stroke-linejoin="round"/>
<path d="M9.33073 2.25V4M4.66406 2.25V4" stroke="#777777" stroke-linecap="round" stroke-linejoin="round"/>
<path d="M5.25 9.24992L6.41667 10.4166L8.75 8.08325" stroke="#777777" stroke-linecap="round" stroke-linejoin="round"/>
</svg>
