<svg width="14" height="15" viewBox="0 0 14 15" fill="none" xmlns="http://www.w3.org/2000/svg">
<path d="M11.8125 3.125H2.18752C1.95545 3.125 1.73289 3.21719 1.5688 3.38128C1.4047 3.54538 1.31252 3.76794 1.31252 4V12.75C1.31153 12.9168 1.35867 13.0803 1.4483 13.221C1.53793 13.3616 1.66624 13.4734 1.81783 13.543C1.93367 13.5968 2.0598 13.6247 2.18752 13.625C2.39292 13.6245 2.59152 13.5513 2.74806 13.4183L2.75298 13.4145L4.53908 11.875H11.8125C12.0446 11.875 12.2671 11.7828 12.4312 11.6187C12.5953 11.4546 12.6875 11.2321 12.6875 11V4C12.6875 3.76794 12.5953 3.54538 12.4312 3.38128C12.2671 3.21719 12.0446 3.125 11.8125 3.125ZM11.8125 11H4.37502C4.26997 11.0001 4.16844 11.0379 4.089 11.1066L2.18752 12.75V4H11.8125V11ZM4.81252 6.625C4.81252 6.50897 4.85861 6.39769 4.94066 6.31564C5.0227 6.23359 5.13398 6.1875 5.25002 6.1875H8.75002C8.86605 6.1875 8.97733 6.23359 9.05937 6.31564C9.14142 6.39769 9.18752 6.50897 9.18752 6.625C9.18752 6.74103 9.14142 6.85231 9.05937 6.93436C8.97733 7.01641 8.86605 7.0625 8.75002 7.0625H5.25002C5.13398 7.0625 5.0227 7.01641 4.94066 6.93436C4.85861 6.85231 4.81252 6.74103 4.81252 6.625ZM4.81252 8.375C4.81252 8.25897 4.85861 8.14769 4.94066 8.06564C5.0227 7.98359 5.13398 7.9375 5.25002 7.9375H8.75002C8.86605 7.9375 8.97733 7.98359 9.05937 8.06564C9.14142 8.14769 9.18752 8.25897 9.18752 8.375C9.18752 8.49103 9.14142 8.60231 9.05937 8.68436C8.97733 8.76641 8.86605 8.8125 8.75002 8.8125H5.25002C5.13398 8.8125 5.0227 8.76641 4.94066 8.68436C4.85861 8.60231 4.81252 8.49103 4.81252 8.375Z" fill="#1E1E1E"/>
</svg>
