<svg width="14" height="15" viewBox="0 0 14 15" fill="none" xmlns="http://www.w3.org/2000/svg">
<path d="M4.11238 4.61238H4.11822M6.13188 2.25H4.55C3.56991 2.25 3.07986 2.25 2.70552 2.44074C2.37623 2.60852 2.10852 2.87623 1.94074 3.20552C1.75 3.57986 1.75 4.06991 1.75 5.05V6.63188C1.75 7.05987 1.75 7.2739 1.79835 7.47532C1.84122 7.65388 1.91193 7.82457 2.00788 7.98119C2.1161 8.15777 2.26743 8.30908 2.5701 8.61177L5.31177 11.3534C6.00478 12.0464 6.35133 12.393 6.75086 12.5228C7.10237 12.637 7.48096 12.637 7.83247 12.5228C8.232 12.393 8.57856 12.0464 9.27156 11.3534L10.8534 9.77156C11.5464 9.07856 11.893 8.732 12.0228 8.33247C12.137 7.98096 12.137 7.60237 12.0228 7.25086C11.893 6.85133 11.5464 6.50478 10.8534 5.81177L8.11177 3.0701C7.80908 2.76743 7.65777 2.6161 7.48119 2.50788C7.32457 2.41193 7.15388 2.34122 6.97532 2.29835C6.7739 2.25 6.55987 2.25 6.13188 2.25ZM4.40405 4.61238C4.40405 4.77347 4.27347 4.90405 4.11238 4.90405C3.9513 4.90405 3.82072 4.77347 3.82072 4.61238C3.82072 4.4513 3.9513 4.32072 4.11238 4.32072C4.27347 4.32072 4.40405 4.4513 4.40405 4.61238Z" stroke="#1E1E1E" stroke-linecap="round" stroke-linejoin="round"/>
</svg>
