<svg width="13" height="13" viewBox="0 0 13 13" fill="none" xmlns="http://www.w3.org/2000/svg">
<path d="M12.4018 6.28085L9.94087 8.40436L10.6906 11.5801C10.732 11.7525 10.7214 11.9332 10.66 12.0996C10.5987 12.2659 10.4894 12.4104 10.3461 12.5147C10.2027 12.6189 10.0316 12.6784 9.85449 12.6855C9.67735 12.6926 9.50207 12.6471 9.3508 12.5546L6.58908 10.8549L3.82572 12.5546C3.67447 12.6465 3.4994 12.6916 3.32256 12.6843C3.14572 12.6769 2.97501 12.6174 2.83194 12.5132C2.68886 12.409 2.57981 12.2648 2.51853 12.0987C2.45724 11.9327 2.44645 11.7522 2.48751 11.5801L3.24002 8.40436L0.779077 6.28085C0.645256 6.16519 0.548474 6.01267 0.500818 5.84233C0.453162 5.672 0.456744 5.4914 0.511117 5.32309C0.56549 5.15478 0.668244 5.00621 0.806546 4.89595C0.944849 4.78569 1.11257 4.71862 1.28876 4.70311L4.51533 4.4428L5.76001 1.43061C5.82739 1.26645 5.94205 1.12603 6.08944 1.0272C6.23682 0.928378 6.41026 0.87561 6.58771 0.87561C6.76516 0.87561 6.9386 0.928378 7.08598 1.0272C7.23337 1.12603 7.34803 1.26645 7.41541 1.43061L8.65955 4.4428L11.8861 4.70311C12.0627 4.71804 12.2309 4.78474 12.3697 4.89485C12.5085 5.00496 12.6117 5.15358 12.6664 5.3221C12.7211 5.49061 12.7249 5.67152 12.6772 5.84217C12.6296 6.01282 12.5326 6.1656 12.3985 6.28139L12.4018 6.28085Z" fill="#6C6F38"/>
</svg>
