<svg width="18" height="18" viewBox="0 0 18 18" fill="none" xmlns="http://www.w3.org/2000/svg">
<path d="M16.4735 8.07544L13.3094 10.8057L14.2734 14.8887C14.3266 15.1104 14.3129 15.3428 14.234 15.5567C14.1552 15.7706 14.0147 15.9563 13.8304 16.0903C13.646 16.2244 13.4261 16.3008 13.1983 16.31C12.9706 16.3191 12.7452 16.2606 12.5507 16.1417L8.99996 13.9564L5.44707 16.1417C5.2526 16.2599 5.02751 16.3179 4.80015 16.3084C4.57278 16.2989 4.3533 16.2224 4.16935 16.0884C3.98539 15.9545 3.84519 15.7691 3.76639 15.5556C3.68759 15.3421 3.67372 15.1101 3.72652 14.8887L4.69402 10.8057L1.52996 8.07544C1.3579 7.92674 1.23347 7.73064 1.17219 7.51164C1.11092 7.29264 1.11553 7.06044 1.18544 6.84404C1.25534 6.62764 1.38746 6.43663 1.56527 6.29487C1.74309 6.1531 1.95873 6.06687 2.18527 6.04693L6.33371 5.71224L7.93402 1.83943C8.02064 1.62836 8.16807 1.44782 8.35756 1.32076C8.54705 1.1937 8.77005 1.12585 8.9982 1.12585C9.22635 1.12585 9.44934 1.1937 9.63884 1.32076C9.82833 1.44782 9.97576 1.62836 10.0624 1.83943L11.662 5.71224L15.8104 6.04693C16.0374 6.06613 16.2537 6.15188 16.4321 6.29345C16.6106 6.43502 16.7433 6.6261 16.8137 6.84276C16.884 7.05943 16.8889 7.29203 16.8276 7.51143C16.7663 7.73083 16.6417 7.92728 16.4693 8.07615L16.4735 8.07544Z" fill="#FFA900"/>
</svg>
