<svg width="20" height="21" viewBox="0 0 20 21" fill="none" xmlns="http://www.w3.org/2000/svg">
<path d="M19.816 10.2961L18.7223 7.56177C18.6295 7.33042 18.4694 7.13226 18.2626 6.99297C18.0559 6.85367 17.8122 6.77966 17.5629 6.78052H14.8613V6.15552C14.8613 5.98976 14.7955 5.83079 14.6783 5.71358C14.5611 5.59637 14.4021 5.53052 14.2363 5.53052H2.36133C2.02981 5.53052 1.71187 5.66221 1.47744 5.89663C1.24302 6.13105 1.11133 6.449 1.11133 6.78052V15.5305C1.11133 15.862 1.24302 16.18 1.47744 16.4144C1.71187 16.6488 2.02981 16.7805 2.36133 16.7805H3.68945C3.82714 17.3183 4.13989 17.7949 4.5784 18.1353C5.0169 18.4757 5.55622 18.6604 6.11133 18.6604C6.66643 18.6604 7.20575 18.4757 7.64426 18.1353C8.08277 17.7949 8.39551 17.3183 8.5332 16.7805H12.4395C12.5771 17.3183 12.8899 17.7949 13.3284 18.1353C13.7669 18.4757 14.3062 18.6604 14.8613 18.6604C15.4164 18.6604 15.9558 18.4757 16.3943 18.1353C16.8328 17.7949 17.1455 17.3183 17.2832 16.7805H18.6113C18.9429 16.7805 19.2608 16.6488 19.4952 16.4144C19.7296 16.18 19.8613 15.862 19.8613 15.5305V10.5305C19.8615 10.4502 19.8462 10.3706 19.816 10.2961ZM14.8613 8.03052H17.5629L18.3129 9.90552H14.8613V8.03052ZM2.36133 6.78052H13.6113V11.7805H2.36133V6.78052ZM6.11133 17.4055C5.8641 17.4055 5.62243 17.3322 5.41687 17.1949C5.2113 17.0575 5.05109 16.8623 4.95648 16.6339C4.86187 16.4055 4.83712 16.1541 4.88535 15.9117C4.93358 15.6692 5.05263 15.4465 5.22745 15.2716C5.40226 15.0968 5.62499 14.9778 5.86747 14.9295C6.10994 14.8813 6.36127 14.9061 6.58968 15.0007C6.81809 15.0953 7.01331 15.2555 7.15067 15.4611C7.28802 15.6666 7.36133 15.9083 7.36133 16.1555C7.36133 16.487 7.22963 16.805 6.99521 17.0394C6.76079 17.2738 6.44285 17.4055 6.11133 17.4055ZM12.4395 15.5305H8.5332C8.39551 14.9928 8.08277 14.5161 7.64426 14.1757C7.20575 13.8354 6.66643 13.6506 6.11133 13.6506C5.55622 13.6506 5.0169 13.8354 4.5784 14.1757C4.13989 14.5161 3.82714 14.9928 3.68945 15.5305H2.36133V13.0305H13.6113V13.9922C13.3239 14.1584 13.0724 14.3799 12.8712 14.6439C12.67 14.908 12.5233 15.2093 12.4395 15.5305ZM14.8613 17.4055C14.6141 17.4055 14.3724 17.3322 14.1669 17.1949C13.9613 17.0575 13.8011 16.8623 13.7065 16.6339C13.6119 16.4055 13.5871 16.1541 13.6353 15.9117C13.6836 15.6692 13.8026 15.4465 13.9774 15.2716C14.1523 15.0968 14.375 14.9778 14.6175 14.9295C14.8599 14.8813 15.1113 14.9061 15.3397 15.0007C15.5681 15.0953 15.7633 15.2555 15.9007 15.4611C16.038 15.6666 16.1113 15.9083 16.1113 16.1555C16.1113 16.487 15.9796 16.805 15.7452 17.0394C15.5108 17.2738 15.1928 17.4055 14.8613 17.4055ZM18.6113 15.5305H17.2832C17.1439 14.9941 16.8305 14.519 16.3923 14.1797C15.954 13.8404 15.4156 13.656 14.8613 13.6555V11.1555H18.6113V15.5305Z" fill="#90944B"/>
</svg>
