<svg width="20" height="21" viewBox="0 0 20 21" fill="none" xmlns="http://www.w3.org/2000/svg">
<path d="M6.66706 3.83329L7.25632 3.24404L6.66706 2.65479L6.0778 3.24404L6.66706 3.83329ZM16.6671 7.99996C16.6671 7.53973 16.294 7.16663 15.8337 7.16663C15.3735 7.16663 15.0004 7.53973 15.0004 7.99996H16.6671ZM11.423 7.4107L7.25632 3.24404L6.0778 4.42255L10.2445 8.58922L11.423 7.4107ZM6.0778 3.24404L1.91113 7.4107L3.08965 8.58922L7.25632 4.42255L6.0778 3.24404ZM5.83372 3.83329V12.5833H7.50039V3.83329H5.83372ZM16.6671 12.5833V7.99996H15.0004V12.5833H16.6671ZM11.2504 18C14.242 18 16.6671 15.5748 16.6671 12.5833H15.0004C15.0004 14.6544 13.3215 16.3333 11.2504 16.3333V18ZM5.83372 12.5833C5.83372 15.5749 8.25885 18 11.2504 18V16.3333C9.17931 16.3333 7.50039 14.6544 7.50039 12.5833H5.83372Z" fill="#90944B"/>
</svg>
