<svg width="20" height="20" viewBox="0 0 20 20" fill="none" xmlns="http://www.w3.org/2000/svg">
<g clip-path="url(#clip0_1880_20705)">
<path d="M9.99968 0.833374C8.18668 0.833374 6.4144 1.37099 4.90695 2.37824C3.3995 3.38548 2.22459 4.81712 1.53078 6.49211C0.83698 8.1671 0.655449 10.0102 1.00915 11.7884C1.36284 13.5665 2.23589 15.1999 3.51787 16.4819C4.79985 17.7638 6.43319 18.6369 8.21135 18.9906C9.98951 19.3443 11.8326 19.1627 13.5076 18.4689C15.1826 17.7751 16.6142 16.6002 17.6215 15.0928C18.6287 13.5853 19.1663 11.813 19.1663 10C19.1635 7.56977 18.1968 5.23986 16.4783 3.5214C14.7599 1.80293 12.4299 0.836241 9.99968 0.833374ZM9.99968 17.5C8.51632 17.5 7.06627 17.0602 5.8329 16.2361C4.59953 15.412 3.63824 14.2406 3.07058 12.8702C2.50292 11.4997 2.3544 9.99172 2.64379 8.53686C2.93318 7.08201 3.64748 5.74563 4.69638 4.69674C5.74527 3.64785 7.08164 2.93354 8.5365 2.64415C9.99136 2.35476 11.4994 2.50329 12.8698 3.07094C14.2402 3.6386 15.4116 4.5999 16.2357 5.83326C17.0598 7.06663 17.4997 8.51668 17.4997 10C17.4973 11.9884 16.7063 13.8947 15.3003 15.3007C13.8943 16.7067 11.9881 17.4976 9.99968 17.5ZM10.833 13.75V15.4167H9.16634V13.75H10.833ZM13.333 7.91671C13.3339 8.41648 13.222 8.91001 13.0055 9.36049C12.7891 9.81097 12.4738 10.2068 12.083 10.5184C11.4518 11.0075 11.025 11.7138 10.8855 12.5H9.19218C9.26586 11.8576 9.46744 11.2364 9.78503 10.673C10.1026 10.1097 10.5298 9.61565 11.0413 9.22004C11.2466 9.05574 11.4101 8.84519 11.5185 8.60561C11.6269 8.36602 11.677 8.1042 11.6648 7.84154C11.6526 7.57887 11.5784 7.32282 11.4484 7.0943C11.3183 6.86579 11.136 6.67129 10.9163 6.52671C10.6716 6.36671 10.3899 6.272 10.0982 6.25157C9.80646 6.23115 9.51437 6.28571 9.24968 6.41004C8.96734 6.54537 8.7304 6.75981 8.56767 7.02729C8.40493 7.29476 8.32341 7.60376 8.33301 7.91671C8.33301 8.13772 8.24521 8.34968 8.08893 8.50596C7.93265 8.66224 7.72069 8.75004 7.49968 8.75004C7.27866 8.75004 7.0667 8.66224 6.91042 8.50596C6.75414 8.34968 6.66635 8.13772 6.66635 7.91671C6.65395 7.27624 6.83066 6.64633 7.17439 6.10577C7.51811 5.5652 8.01359 5.13798 8.59885 4.87754C9.11764 4.64569 9.68646 4.5482 10.2529 4.59408C10.8192 4.63996 11.365 4.82772 11.8397 5.14004C12.2984 5.4437 12.6748 5.85617 12.9354 6.34066C13.1959 6.82515 13.3325 7.36659 13.333 7.91671Z" fill="#90944B"/>
</g>
<defs>
<clipPath id="clip0_1880_20705">
<rect width="20" height="20" fill="white"/>
</clipPath>
</defs>
</svg>
