<svg width="20" height="21" viewBox="0 0 20 21" fill="none" xmlns="http://www.w3.org/2000/svg">
<path d="M7.49967 9.66671C8.42015 9.66671 9.16634 8.92052 9.16634 8.00004C9.16634 7.07957 8.42015 6.33337 7.49967 6.33337C6.5792 6.33337 5.83301 7.07957 5.83301 8.00004C5.83301 8.92052 6.5792 9.66671 7.49967 9.66671Z" stroke="#90944B" stroke-width="1.5"/>
<path d="M10.8337 13C10.8337 13.9205 10.8337 14.6667 7.50033 14.6667C4.16699 14.6667 4.16699 13.9205 4.16699 13C4.16699 12.0795 5.65938 11.3334 7.50033 11.3334C9.34124 11.3334 10.8337 12.0795 10.8337 13Z" stroke="#90944B" stroke-width="1.5"/>
<path d="M1.66699 10.5C1.66699 7.35734 1.66699 5.786 2.6433 4.80968C3.61962 3.83337 5.19096 3.83337 8.33366 3.83337H11.667C14.8097 3.83337 16.3811 3.83337 17.3573 4.80968C18.3337 5.786 18.3337 7.35734 18.3337 10.5C18.3337 13.6427 18.3337 15.2141 17.3573 16.1904C16.3811 17.1667 14.8097 17.1667 11.667 17.1667H8.33366C5.19096 17.1667 3.61962 17.1667 2.6433 16.1904C1.66699 15.2141 1.66699 13.6427 1.66699 10.5Z" stroke="#90944B" stroke-width="1.5"/>
<path d="M15.8333 10.5H12.5" stroke="#90944B" stroke-width="1.5" stroke-linecap="round"/>
<path d="M15.8337 8H11.667" stroke="#90944B" stroke-width="1.5" stroke-linecap="round"/>
<path d="M15.833 13H13.333" stroke="#90944B" stroke-width="1.5" stroke-linecap="round"/>
</svg>
