<svg width="20" height="20" viewBox="0 0 20 20" fill="none" xmlns="http://www.w3.org/2000/svg">
<path d="M16.2496 5L15.0274 5.91667C14.7389 6.13303 14.388 6.25 14.0274 6.25H11.2288C10.7309 6.25 10.2756 6.53134 10.053 6.97672C9.77812 7.52634 9.9207 8.19301 10.3963 8.58217L12.063 9.94575C13.3745 11.0189 14.0533 12.6833 13.8662 14.3677L13.8495 14.5172C13.7832 15.1141 13.6365 15.6993 13.4135 16.2569L12.9163 17.5" stroke="#90944B" stroke-width="1.5"/>
<path d="M2.08301 8.75001L4.78142 8.30028C5.90946 8.11227 6.88742 9.09026 6.69941 10.2183L6.58732 10.8908C6.38662 12.095 6.99476 13.2893 8.08665 13.8352C8.96092 14.2723 9.41434 15.2581 9.17726 16.2063L8.74967 17.9167" stroke="#90944B" stroke-width="1.5"/>
<path d="M9.99967 17.9167C14.3719 17.9167 17.9163 14.3723 17.9163 10C17.9163 5.62779 14.3719 2.08337 9.99967 2.08337C5.62742 2.08337 2.08301 5.62779 2.08301 10C2.08301 14.3723 5.62742 17.9167 9.99967 17.9167Z" stroke="#90944B" stroke-width="1.5"/>
</svg>
