<svg width="18" height="18" viewBox="0 0 18 18" fill="none" xmlns="http://www.w3.org/2000/svg">
<rect x="0.5" y="0.5" width="17" height="17" rx="8.5" stroke="#8F8F8F"/>
<path d="M13.067 10.05L12.3605 8.052C12.3185 7.947 12.2735 7.824 12.2255 7.683C12.1805 7.542 12.137 7.389 12.095 7.224C12.053 7.392 12.008 7.548 11.96 7.692C11.915 7.833 11.8715 7.956 11.8295 8.061L11.1275 10.05H13.067ZM15.335 12.5295H14.2865C14.1695 12.5295 14.0735 12.5025 13.9985 12.4485C13.9265 12.3915 13.8725 12.3195 13.8365 12.2325L13.3955 10.986H10.7945L10.3535 12.2325C10.3235 12.3075 10.271 12.3765 10.196 12.4395C10.121 12.4995 10.0265 12.5295 9.91248 12.5295H8.85498L11.4065 6H12.788L15.335 12.5295Z" fill="#1E1E1E" fill-opacity="0.5"/>
<path d="M5.754 11.4495C5.973 11.4495 6.1695 11.4135 6.3435 11.3415C6.5175 11.2665 6.6645 11.1615 6.7845 11.0265C6.9045 10.8915 6.996 10.728 7.059 10.536C7.122 10.344 7.1535 10.128 7.1535 9.888V6H8.5035V9.888C8.5035 10.284 8.439 10.6485 8.31 10.9815C8.184 11.3115 8.0025 11.5965 7.7655 11.8365C7.5285 12.0765 7.2405 12.264 6.9015 12.399C6.5625 12.534 6.18 12.6015 5.754 12.6015C5.328 12.6015 4.944 12.534 4.602 12.399C4.263 12.264 3.975 12.0765 3.738 11.8365C3.501 11.5965 3.318 11.3115 3.189 10.9815C3.063 10.6485 3 10.284 3 9.888V6H4.35V9.888C4.35 10.128 4.3815 10.344 4.4445 10.536C4.5075 10.728 4.599 10.8915 4.719 11.0265C4.839 11.1615 4.986 11.2665 5.16 11.3415C5.334 11.4135 5.532 11.4495 5.754 11.4495Z" fill="#1E1E1E" fill-opacity="0.5"/>
</svg>
