<svg width="19" height="18" viewBox="0 0 19 18" fill="none" xmlns="http://www.w3.org/2000/svg">
<rect x="1" y="0.5" width="17" height="17" rx="8.5" stroke="#8F8F8F"/>
<path d="M15.0371 6V13H14.2893C14.1768 13 14.0819 12.9823 14.0047 12.947C13.9275 12.9084 13.8519 12.844 13.778 12.754L10.29 8.31565C10.2997 8.42822 10.3061 8.53918 10.3093 8.64853C10.3157 8.75788 10.319 8.85919 10.319 8.95246V13H9.04053V6H9.80276C9.86387 6 9.91533 6.00322 9.95714 6.00965C10.0022 6.01287 10.0424 6.02412 10.0777 6.04342C10.1131 6.0595 10.1469 6.08201 10.1791 6.11096C10.2112 6.1399 10.2466 6.1785 10.2852 6.22674L13.7973 10.6844C13.7844 10.5622 13.7748 10.4448 13.7683 10.3322C13.7619 10.2164 13.7587 10.1071 13.7587 10.0042V6H15.0371Z" fill="#1E1E1E" fill-opacity="0.5"/>
<path d="M4.95693 7.13371V8.93316H7.29188V10.0283H4.95693V11.8663H7.95764V13H3.5V6H7.95764V7.13371H4.95693Z" fill="#1E1E1E" fill-opacity="0.5"/>
</svg>
