<svg width="42" height="42" viewBox="0 0 42 42" fill="none" xmlns="http://www.w3.org/2000/svg">
<path d="M41.6138 15.0383L39.317 9.29614C39.1221 8.81031 38.7858 8.39418 38.3517 8.10166C37.9177 7.80914 37.4057 7.65372 36.8823 7.65552H31.209V6.34302C31.209 5.99492 31.0707 5.66108 30.8246 5.41494C30.5784 5.1688 30.2446 5.03052 29.8965 5.03052H4.95898C4.26279 5.03052 3.59511 5.30708 3.10283 5.79936C2.61055 6.29165 2.33398 6.95932 2.33398 7.65552V26.0305C2.33398 26.7267 2.61055 27.3944 3.10283 27.8867C3.59511 28.379 4.26279 28.6555 4.95898 28.6555H7.74805C8.03719 29.7848 8.69397 30.7858 9.61483 31.5005C10.5357 32.2153 11.6683 32.6033 12.834 32.6033C13.9997 32.6033 15.1323 32.2153 16.0531 31.5005C16.974 30.7858 17.6308 29.7848 17.9199 28.6555H26.123C26.4122 29.7848 27.069 30.7858 27.9898 31.5005C28.9107 32.2153 30.0433 32.6033 31.209 32.6033C32.3747 32.6033 33.5073 32.2153 34.4281 31.5005C35.349 30.7858 36.0058 29.7848 36.2949 28.6555H39.084C39.7802 28.6555 40.4479 28.379 40.9401 27.8867C41.4324 27.3944 41.709 26.7267 41.709 26.0305V15.5305C41.7094 15.3618 41.6771 15.1947 41.6138 15.0383ZM31.209 10.2805H36.8823L38.4573 14.218H31.209V10.2805ZM4.95898 7.65552H28.584V18.1555H4.95898V7.65552ZM12.834 29.968C12.3148 29.968 11.8073 29.8141 11.3756 29.5256C10.9439 29.2372 10.6075 28.8272 10.4088 28.3476C10.2101 27.8679 10.1581 27.3401 10.2594 26.8309C10.3607 26.3217 10.6107 25.854 10.9778 25.4869C11.3449 25.1197 11.8127 24.8697 12.3219 24.7685C12.8311 24.6672 13.3589 24.7192 13.8385 24.9178C14.3182 25.1165 14.7282 25.453 15.0166 25.8846C15.305 26.3163 15.459 26.8238 15.459 27.343C15.459 28.0392 15.1824 28.7069 14.6901 29.1992C14.1979 29.6915 13.5302 29.968 12.834 29.968ZM26.123 26.0305H17.9199C17.6308 24.9012 16.974 23.9003 16.0531 23.1855C15.1323 22.4707 13.9997 22.0827 12.834 22.0827C11.6683 22.0827 10.5357 22.4707 9.61483 23.1855C8.69397 23.9003 8.03719 24.9012 7.74805 26.0305H4.95898V20.7805H28.584V22.8001C27.9805 23.149 27.4522 23.6141 27.0297 24.1687C26.6073 24.7232 26.2991 25.356 26.123 26.0305ZM31.209 29.968C30.6898 29.968 30.1823 29.8141 29.7506 29.5256C29.3189 29.2372 28.9825 28.8272 28.7838 28.3476C28.5851 27.8679 28.5331 27.3401 28.6344 26.8309C28.7357 26.3217 28.9857 25.854 29.3528 25.4869C29.7199 25.1197 30.1877 24.8697 30.6969 24.7685C31.2061 24.6672 31.7339 24.7192 32.2135 24.9178C32.6932 25.1165 33.1032 25.453 33.3916 25.8846C33.68 26.3163 33.834 26.8238 33.834 27.343C33.834 28.0392 33.5574 28.7069 33.0651 29.1992C32.5729 29.6915 31.9052 29.968 31.209 29.968ZM39.084 26.0305H36.2949C36.0023 24.904 35.3443 23.9063 34.424 23.1938C33.5036 22.4812 32.3729 22.0941 31.209 22.093V16.843H39.084V26.0305Z" fill="#90944B"/>
</svg>
