<svg width="42" height="42" viewBox="0 0 42 42" fill="none" xmlns="http://www.w3.org/2000/svg">
<path d="M36.75 7.875H5.25C4.55381 7.875 3.88613 8.15156 3.39384 8.64384C2.90156 9.13613 2.625 9.80381 2.625 10.5V31.5C2.625 32.1962 2.90156 32.8639 3.39384 33.3562C3.88613 33.8484 4.55381 34.125 5.25 34.125H36.75C37.4462 34.125 38.1139 33.8484 38.6062 33.3562C39.0984 32.8639 39.375 32.1962 39.375 31.5V10.5C39.375 9.80381 39.0984 9.13613 38.6062 8.64384C38.1139 8.15156 37.4462 7.875 36.75 7.875ZM36.75 10.5V14.4375H5.25V10.5H36.75ZM36.75 31.5H5.25V17.0625H36.75V31.5ZM34.125 27.5625C34.125 27.9106 33.9867 28.2444 33.7406 28.4906C33.4944 28.7367 33.1606 28.875 32.8125 28.875H27.5625C27.2144 28.875 26.8806 28.7367 26.6344 28.4906C26.3883 28.2444 26.25 27.9106 26.25 27.5625C26.25 27.2144 26.3883 26.8806 26.6344 26.6344C26.8806 26.3883 27.2144 26.25 27.5625 26.25H32.8125C33.1606 26.25 33.4944 26.3883 33.7406 26.6344C33.9867 26.8806 34.125 27.2144 34.125 27.5625ZM23.625 27.5625C23.625 27.9106 23.4867 28.2444 23.2406 28.4906C22.9944 28.7367 22.6606 28.875 22.3125 28.875H19.6875C19.3394 28.875 19.0056 28.7367 18.7594 28.4906C18.5133 28.2444 18.375 27.9106 18.375 27.5625C18.375 27.2144 18.5133 26.8806 18.7594 26.6344C19.0056 26.3883 19.3394 26.25 19.6875 26.25H22.3125C22.6606 26.25 22.9944 26.3883 23.2406 26.6344C23.4867 26.8806 23.625 27.2144 23.625 27.5625Z" fill="#90944B"/>
</svg>
