<svg width="42" height="42" viewBox="0 0 42 42" fill="none" xmlns="http://www.w3.org/2000/svg">
<g clip-path="url(#clip0_494_8171)">
<path fill-rule="evenodd" clip-rule="evenodd" d="M18.375 31.5V26.25L7.875 34.125L18.375 42V36.75H26.2421C30.4194 36.7479 34.425 35.0881 37.3795 32.1351C40.334 29.1821 41.9958 25.1772 42 21H36.75C36.75 23.783 35.6452 26.4521 33.6783 28.4209C31.7115 30.3897 29.0435 31.4972 26.2605 31.5H18.375ZM23.625 5.25H15.7579C11.5806 5.25208 7.57496 6.91187 4.62046 9.86489C1.66596 12.8179 0.00417255 16.8228 0 21H5.25C5.25 18.217 6.3548 15.5479 8.32167 13.5791C10.2885 11.6103 12.9565 10.5028 15.7395 10.5H23.625V15.75L34.125 7.875L23.625 0V5.25Z" fill="#90944B"/>
</g>
<defs>
<clipPath id="clip0_494_8171">
<rect width="42" height="42" fill="white"/>
</clipPath>
</defs>
</svg>
