<svg width="42" height="42" viewBox="0 0 42 42" fill="none" xmlns="http://www.w3.org/2000/svg">
<path d="M7.01166 17.7191C7.01166 15.4582 7.59474 13.3746 8.76088 11.4683C9.92703 9.56196 11.5247 8.05466 13.5538 6.94635C15.5829 5.83803 17.7752 5.27279 20.1308 5.25063C22.4865 5.22846 24.6788 5.7937 26.7079 6.94635C28.737 8.09899 30.3346 9.6063 31.5008 11.4683C32.6669 13.3302 33.25 15.4139 33.25 17.7191C33.25 18.6723 33.0051 19.7806 32.5153 21.0441C32.0255 22.3076 31.4075 23.5821 30.6611 24.8678C29.9148 26.1534 29.0635 27.4612 28.1073 28.7912C27.151 30.1212 26.2181 31.3625 25.3085 32.5151C24.3989 33.6678 23.5476 34.6874 22.7547 35.5741C21.9617 36.4607 21.332 37.1811 20.8655 37.7353L20.1308 38.5C19.9442 38.3227 19.6994 38.0567 19.3962 37.702C19.093 37.3474 18.4749 36.6491 17.542 35.6073C16.6091 34.5655 15.7461 33.5237 14.9531 32.4819C14.1602 31.4401 13.2389 30.2209 12.1894 28.8244C11.1398 27.428 10.2769 26.098 9.60051 24.8345C8.92414 23.571 8.30609 22.3186 7.74633 21.0773C7.18658 19.836 6.94169 18.7166 7.01166 17.7191ZM11.3847 17.7191C11.3847 20.0244 12.236 21.9861 13.9386 23.6043C15.6412 25.2224 17.7052 26.0315 20.1308 26.0315C22.5564 26.0315 24.6205 25.2224 26.3231 23.6043C28.0257 21.9861 28.8769 20.0244 28.8769 17.7191C28.8769 15.4139 28.0257 13.4632 26.3231 11.8673C24.6205 10.2713 22.5564 9.45113 20.1308 9.4068C17.7052 9.36247 15.6412 10.1826 13.9386 11.8673C12.236 13.5519 11.3847 15.5025 11.3847 17.7191Z" fill="#90944B"/>
</svg>
