<svg width="42" height="42" viewBox="0 0 42 42" fill="none" xmlns="http://www.w3.org/2000/svg">
<path d="M8.98438 7.4668C9.98146 6.41706 11.7413 6.49542 12.7236 7.88477L15.1748 11.3525C15.9848 12.4981 15.8593 14.0202 15.0078 14.917L14.4502 15.5049L15.5371 16.5381C14.4495 15.5051 14.4487 15.5063 14.4473 15.5078L14.4385 15.5166C14.4346 15.5208 14.4309 15.5257 14.4268 15.5303C14.4184 15.5395 14.4087 15.5489 14.3994 15.5596C14.3809 15.5809 14.3606 15.6054 14.3389 15.6328C14.2953 15.6879 14.2458 15.7554 14.1943 15.8359C14.091 15.9974 13.9793 16.2099 13.8848 16.4756C13.6925 17.016 13.5885 17.7299 13.7188 18.6191C13.9747 20.3659 15.1183 22.7063 18.0908 25.8359C21.0542 28.9559 23.2981 30.1894 25.0176 30.4688C25.9004 30.6121 26.6173 30.4977 27.1611 30.2832C27.4265 30.1785 27.6368 30.0555 27.7949 29.9434C27.8739 29.8874 27.9399 29.8338 27.9932 29.7871C28.0198 29.7637 28.0439 29.7424 28.0645 29.7227L28.1055 29.6816C28.1075 29.6796 28.1094 29.6768 28.1113 29.6748C28.1123 29.6738 28.1138 29.6723 28.1143 29.6719C28.1138 29.6687 28.0708 29.626 27.0293 28.6367L28.1162 29.6689L29.002 28.7373C29.7378 27.9626 30.8846 27.7873 31.8652 28.3516L35.5801 30.4902C37.1537 31.396 37.4603 33.6243 36.2881 34.8584L33.5254 37.7666C32.9875 38.3329 32.4285 38.6323 31.8896 38.6855C29.1098 38.9598 21.8431 38.7275 13.9512 30.4189C6.42139 22.4914 5.16098 15.8072 5.00391 12.8809C4.96309 12.1189 5.29407 11.352 5.93262 10.6797L8.98438 7.4668Z" stroke="#90944B" stroke-width="3"/>
</svg>
