<svg width="24" height="24" viewBox="0 0 24 24" fill="none" xmlns="http://www.w3.org/2000/svg">
<g clip-path="url(#clip0_400_2792)">
<path d="M12 24C17.2584 24 20.1816 24 22.0908 22.0908C24 20.1816 24 17.2602 24 12C24 6.73982 24 3.81838 22.0908 1.90919C20.1816 0 17.2584 0 12 0C6.74158 0 3.81838 0 1.90919 1.90919C0 3.81838 0 6.74158 0 12C0 17.2584 0 20.1816 1.90919 22.0908C3.81838 24 6.74158 24 12 24Z" fill="#1E1E1E"/>
<path d="M16.5067 9.62744C15.6002 9.62744 14.9274 10.3272 14.9274 11.1907C14.9274 11.8957 15.4231 12.4457 16.0506 12.6085L14.7642 14.5791H15.9657L17.0594 12.7452H17.878V14.5791H18.8811V9.62744H16.5067ZM16.6446 11.9074C16.2321 11.9074 15.9766 11.5836 15.9766 11.2146C15.9766 10.8455 16.2107 10.4939 16.6446 10.4939H17.8793V11.9074H16.6446Z" fill="white"/>
<path d="M11.0136 9.62744L10.6807 10.544L12.0467 10.5361L11.2377 13.5033C11.0071 14.3684 11.9088 15.0221 12.6782 14.5133L14.4281 13.3262L13.9128 12.5689L12.1651 13.7796L13.3432 9.62744H11.0136Z" fill="white"/>
<path d="M12.8973 8.99075C13.2806 8.99075 13.5914 8.71074 13.5914 8.36536C13.5914 8.01997 13.2806 7.73999 12.8973 7.73999C12.5139 7.73999 12.2031 8.01997 12.2031 8.36536C12.2031 8.71074 12.5139 8.99075 12.8973 8.99075Z" fill="white"/>
<path d="M9.35671 13.6649V8.47656H5.50742V11.2457C5.50742 12.5487 5.13012 13.3542 4.90773 13.6627H4.45166V15.9258H5.42779V14.588H9.07732V15.9279H10.053V13.6649H9.35671ZM6.47791 11.1887V9.39699H8.35576V13.6619H5.93174C6.15151 13.3024 6.47791 12.3877 6.47791 11.1887Z" fill="white"/>
</g>
<defs>
<clipPath id="clip0_400_2792">
<rect width="24" height="24" fill="white"/>
</clipPath>
</defs>
</svg>
