<svg width="25" height="24" viewBox="0 0 25 24" fill="none" xmlns="http://www.w3.org/2000/svg">
<circle cx="12.3335" cy="11.6499" r="10.5" stroke="#FFAC5F"/>
<path d="M12.8994 16.0524C13.2863 16.0524 13.6086 16.0118 13.8665 15.9307C14.1296 15.8445 14.3411 15.7278 14.501 15.5807C14.6609 15.4337 14.7743 15.2612 14.8414 15.0635C14.9084 14.8657 14.942 14.6527 14.942 14.4245C14.942 14.176 14.9084 13.9503 14.8414 13.7474C14.7743 13.5446 14.6609 13.3747 14.501 13.2377C14.3411 13.0957 14.1322 12.9867 13.8743 12.9106C13.6164 12.8345 13.294 12.7965 12.9072 12.7965H11.0812V16.0524H12.8994ZM12.9072 11.199C13.6344 11.199 14.256 11.2776 14.7718 11.4348C15.2927 11.592 15.7157 11.8076 16.0406 12.0814C16.3707 12.3502 16.6132 12.6697 16.7679 13.0399C16.9226 13.4051 17 13.7981 17 14.2191C17 14.7363 16.9072 15.2055 16.7215 15.6264C16.5409 16.0473 16.2753 16.4099 15.9246 16.7142C15.5738 17.0134 15.1431 17.2442 14.6325 17.4065C14.127 17.5688 13.5493 17.6499 12.8994 17.6499H9V6.6499H16.5899V8.2322H11.0812V11.199H12.9072Z" fill="#90944B"/>
</svg>
