<svg width="43" height="42" viewBox="0 0 43 42" fill="none" xmlns="http://www.w3.org/2000/svg">
<path d="M37.25 7.875H5.75C5.05381 7.875 4.38613 8.15156 3.89384 8.64384C3.40156 9.13613 3.125 9.80381 3.125 10.5V31.5C3.125 32.1962 3.40156 32.8639 3.89384 33.3562C4.38613 33.8484 5.05381 34.125 5.75 34.125H37.25C37.9462 34.125 38.6139 33.8484 39.1062 33.3562C39.5984 32.8639 39.875 32.1962 39.875 31.5V10.5C39.875 9.80381 39.5984 9.13613 39.1062 8.64384C38.6139 8.15156 37.9462 7.875 37.25 7.875ZM37.25 10.5V14.4375H5.75V10.5H37.25ZM37.25 31.5H5.75V17.0625H37.25V31.5ZM34.625 27.5625C34.625 27.9106 34.4867 28.2444 34.2406 28.4906C33.9944 28.7367 33.6606 28.875 33.3125 28.875H28.0625C27.7144 28.875 27.3806 28.7367 27.1344 28.4906C26.8883 28.2444 26.75 27.9106 26.75 27.5625C26.75 27.2144 26.8883 26.8806 27.1344 26.6344C27.3806 26.3883 27.7144 26.25 28.0625 26.25H33.3125C33.6606 26.25 33.9944 26.3883 34.2406 26.6344C34.4867 26.8806 34.625 27.2144 34.625 27.5625ZM24.125 27.5625C24.125 27.9106 23.9867 28.2444 23.7406 28.4906C23.4944 28.7367 23.1606 28.875 22.8125 28.875H20.1875C19.8394 28.875 19.5056 28.7367 19.2594 28.4906C19.0133 28.2444 18.875 27.9106 18.875 27.5625C18.875 27.2144 19.0133 26.8806 19.2594 26.6344C19.5056 26.3883 19.8394 26.25 20.1875 26.25H22.8125C23.1606 26.25 23.4944 26.3883 23.7406 26.6344C23.9867 26.8806 24.125 27.2144 24.125 27.5625Z" fill="#90944B"/>
</svg>
