<svg width="43" height="42" viewBox="0 0 43 42" fill="none" xmlns="http://www.w3.org/2000/svg">
<path d="M22.8125 13.125V20.2568L28.7384 23.812C29.0369 23.9913 29.252 24.2818 29.3363 24.6196C29.4206 24.9575 29.3672 25.315 29.188 25.6134C29.0087 25.9119 28.7182 26.127 28.3804 26.2113C28.0425 26.2956 27.6851 26.2422 27.3866 26.063L20.8241 22.1255C20.6298 22.0088 20.4691 21.8438 20.3576 21.6466C20.246 21.4493 20.1874 21.2266 20.1875 21V13.125C20.1875 12.7769 20.3258 12.4431 20.5719 12.1969C20.8181 11.9508 21.1519 11.8125 21.5 11.8125C21.8481 11.8125 22.1819 11.9508 22.4281 12.1969C22.6742 12.4431 22.8125 12.7769 22.8125 13.125ZM37.25 9.18751C36.9019 9.18751 36.5681 9.32579 36.3219 9.57193C36.0758 9.81807 35.9375 10.1519 35.9375 10.5V13.4531C34.8957 12.2456 33.8326 11.0824 32.6366 9.87165C30.4477 7.68257 27.6623 6.18707 24.6284 5.57199C21.5945 4.95691 18.4466 5.24955 15.578 6.41332C12.7094 7.5771 10.2474 9.56041 8.49959 12.1154C6.75177 14.6705 5.79564 17.6839 5.75069 20.7792C5.70573 23.8746 6.57393 26.9145 8.24681 29.5192C9.91969 32.1239 12.3231 34.1779 15.1566 35.4245C17.9902 36.6711 21.1283 37.055 24.1788 36.5283C27.2293 36.0016 30.057 34.5876 32.3084 32.4631C32.4338 32.3446 32.5347 32.2025 32.6052 32.0451C32.6757 31.8876 32.7145 31.7178 32.7193 31.5453C32.7242 31.3729 32.6951 31.2011 32.6336 31.04C32.5721 30.8788 32.4794 30.7313 32.3609 30.6059C32.2424 30.4805 32.1004 30.3797 31.9429 30.3091C31.7855 30.2386 31.6157 30.1999 31.4432 30.195C31.2708 30.1901 31.099 30.2192 30.9378 30.2807C30.7766 30.3422 30.6291 30.4349 30.5038 30.5534C28.6269 32.3221 26.2707 33.4987 23.7292 33.9363C21.1876 34.3739 18.5735 34.0531 16.2133 33.0139C13.853 31.9747 11.8512 30.2632 10.4578 28.0931C9.06441 25.923 8.34119 23.3905 8.37847 20.8119C8.41575 18.2333 9.21186 15.7227 10.6674 13.5939C12.1229 11.465 14.1734 9.81205 16.5627 8.84152C18.952 7.87099 21.5743 7.62586 24.1021 8.13673C26.6299 8.6476 28.9512 9.89184 30.7761 11.7141C32.1116 13.0659 33.2813 14.3686 34.4609 15.75H30.6875C30.3394 15.75 30.0056 15.8883 29.7594 16.1344C29.5133 16.3806 29.375 16.7144 29.375 17.0625C29.375 17.4106 29.5133 17.7444 29.7594 17.9906C30.0056 18.2367 30.3394 18.375 30.6875 18.375H37.25C37.5981 18.375 37.9319 18.2367 38.1781 17.9906C38.4242 17.7444 38.5625 17.4106 38.5625 17.0625V10.5C38.5625 10.1519 38.4242 9.81807 38.1781 9.57193C37.9319 9.32579 37.5981 9.18751 37.25 9.18751Z" fill="#90944B"/>
</svg>
