<svg width="43" height="42" viewBox="0 0 43 42" fill="none" xmlns="http://www.w3.org/2000/svg">
<g clip-path="url(#clip0_155_1349)">
<path d="M42.4048 19.1953L40.108 13.4531C39.9131 12.9673 39.5769 12.5512 39.1428 12.2586C38.7087 11.9661 38.1967 11.8107 37.6733 11.8125H32V10.5C32 10.1519 31.8617 9.81806 31.6156 9.57192C31.3694 9.32578 31.0356 9.1875 30.6875 9.1875H5.75C5.05381 9.1875 4.38613 9.46406 3.89384 9.95634C3.40156 10.4486 3.125 11.1163 3.125 11.8125V30.1875C3.125 30.8837 3.40156 31.5514 3.89384 32.0437C4.38613 32.5359 5.05381 32.8125 5.75 32.8125H8.53906C8.82821 33.9418 9.48498 34.9427 10.4058 35.6575C11.3267 36.3723 12.4593 36.7603 13.625 36.7603C14.7907 36.7603 15.9233 36.3723 16.8442 35.6575C17.765 34.9427 18.4218 33.9418 18.7109 32.8125H26.9141C27.2032 33.9418 27.86 34.9427 28.7808 35.6575C29.7017 36.3723 30.8343 36.7603 32 36.7603C33.1657 36.7603 34.2983 36.3723 35.2192 35.6575C36.14 34.9427 36.7968 33.9418 37.0859 32.8125H39.875C40.5712 32.8125 41.2389 32.5359 41.7312 32.0437C42.2234 31.5514 42.5 30.8837 42.5 30.1875V19.6875C42.5005 19.5188 42.4681 19.3517 42.4048 19.1953ZM32 14.4375H37.6733L39.2483 18.375H32V14.4375ZM5.75 11.8125H29.375V22.3125H5.75V11.8125ZM13.625 34.125C13.1058 34.125 12.5983 33.971 12.1666 33.6826C11.735 33.3942 11.3985 32.9842 11.1998 32.5045C11.0011 32.0249 10.9492 31.4971 11.0504 30.9879C11.1517 30.4787 11.4017 30.011 11.7688 29.6438C12.136 29.2767 12.6037 29.0267 13.1129 28.9254C13.6221 28.8242 14.1499 28.8761 14.6295 29.0748C15.1092 29.2735 15.5192 29.6099 15.8076 30.0416C16.096 30.4733 16.25 30.9808 16.25 31.5C16.25 32.1962 15.9734 32.8639 15.4812 33.3562C14.9889 33.8484 14.3212 34.125 13.625 34.125ZM26.9141 30.1875H18.7109C18.4218 29.0582 17.765 28.0573 16.8442 27.3425C15.9233 26.6277 14.7907 26.2397 13.625 26.2397C12.4593 26.2397 11.3267 26.6277 10.4058 27.3425C9.48498 28.0573 8.82821 29.0582 8.53906 30.1875H5.75V24.9375H29.375V26.9571C28.7715 27.306 28.2432 27.7711 27.8207 28.3256C27.3983 28.8802 27.0901 29.513 26.9141 30.1875ZM32 34.125C31.4808 34.125 30.9733 33.971 30.5416 33.6826C30.11 33.3942 29.7735 32.9842 29.5748 32.5045C29.3761 32.0249 29.3242 31.4971 29.4254 30.9879C29.5267 30.4787 29.7767 30.011 30.1438 29.6438C30.511 29.2767 30.9787 29.0267 31.4879 28.9254C31.9971 28.8242 32.5249 28.8761 33.0045 29.0748C33.4842 29.2735 33.8942 29.6099 34.1826 30.0416C34.471 30.4733 34.625 30.9808 34.625 31.5C34.625 32.1962 34.3484 32.8639 33.8562 33.3562C33.3639 33.8484 32.6962 34.125 32 34.125ZM39.875 30.1875H37.0859C36.7933 29.061 36.1353 28.0633 35.215 27.3508C34.2946 26.6382 33.1639 26.2511 32 26.25V21H39.875V30.1875Z" fill="#90944B"/>
</g>
<defs>
<clipPath id="clip0_155_1349">
<rect width="42" height="42" fill="white" transform="translate(0.5)"/>
</clipPath>
</defs>
</svg>
