<svg width="43" height="42" viewBox="0 0 43 42" fill="none" xmlns="http://www.w3.org/2000/svg">
<path d="M35.9375 15.75C35.9389 13.317 35.3255 10.923 34.1541 8.79051C32.9827 6.65801 31.2914 4.85613 29.2372 3.55223C27.1831 2.24833 24.8327 1.48471 22.4045 1.33229C19.9762 1.17986 17.5488 1.64359 15.3477 2.68039C13.1466 3.71719 11.2433 5.29343 9.81442 7.26272C8.38557 9.232 7.47757 11.5304 7.17476 13.9446C6.87195 16.3587 7.18415 18.8102 8.08237 21.0714C8.98058 23.3326 10.4357 25.3301 12.3125 26.8784V39.375C12.3123 39.5988 12.3694 39.819 12.4783 40.0146C12.5873 40.2101 12.7444 40.3746 12.9348 40.4923C13.1251 40.61 13.3425 40.6771 13.5661 40.6871C13.7897 40.6972 14.0122 40.6499 14.2123 40.5497L21.5 36.9141L28.7893 40.5579C28.972 40.6453 29.1724 40.6897 29.375 40.6875C29.7231 40.6875 30.0569 40.5492 30.3031 40.3031C30.5492 40.0569 30.6875 39.7231 30.6875 39.375V26.8784C32.3297 25.5259 33.652 23.8266 34.5597 21.9026C35.4674 19.9785 35.938 17.8774 35.9375 15.75ZM9.6875 15.75C9.6875 13.4137 10.3803 11.1299 11.6783 9.18732C12.9762 7.24477 14.8211 5.73073 16.9796 4.83667C19.138 3.94261 21.5131 3.70868 23.8045 4.16447C26.0959 4.62026 28.2007 5.74529 29.8527 7.3973C31.5047 9.04931 32.6297 11.1541 33.0855 13.4455C33.5413 15.7369 33.3074 18.112 32.4133 20.2704C31.5193 22.4289 30.0052 24.2738 28.0627 25.5717C26.1201 26.8697 23.8363 27.5625 21.5 27.5625C18.3682 27.559 15.3657 26.3134 13.1511 24.0989C10.9366 21.8843 9.69098 18.8818 9.6875 15.75ZM28.0625 37.252L22.0857 34.2645C21.9034 34.1732 21.7023 34.1257 21.4984 34.1257C21.2945 34.1257 21.0934 34.1732 20.911 34.2645L14.9375 37.252V28.6076C16.9692 29.646 19.2183 30.1875 21.5 30.1875C23.7817 30.1875 26.0308 29.646 28.0625 28.6076V37.252ZM21.5 24.9375C23.3171 24.9375 25.0934 24.3987 26.6043 23.3891C28.1152 22.3796 29.2928 20.9447 29.9881 19.2659C30.6835 17.5871 30.8655 15.7398 30.511 13.9576C30.1565 12.1754 29.2814 10.5383 27.9965 9.25345C26.7117 7.96856 25.0746 7.09353 23.2924 6.73903C21.5102 6.38453 19.6629 6.56647 17.9841 7.26185C16.3053 7.95723 14.8704 9.13482 13.8609 10.6457C12.8513 12.1566 12.3125 13.9329 12.3125 15.75C12.3151 18.1859 13.2839 20.5212 15.0063 22.2437C16.7288 23.9661 19.0641 24.9349 21.5 24.9375ZM21.5 9.1875C22.7979 9.1875 24.0667 9.57238 25.1459 10.2935C26.2251 11.0146 27.0663 12.0395 27.563 13.2386C28.0597 14.4378 28.1896 15.7573 27.9364 17.0303C27.6832 18.3033 27.0582 19.4726 26.1404 20.3904C25.2226 21.3082 24.0533 21.9332 22.7803 22.1864C21.5073 22.4396 20.1878 22.3097 18.9886 21.813C17.7895 21.3163 16.7646 20.4751 16.0435 19.3959C15.3224 18.3167 14.9375 17.0479 14.9375 15.75C14.9375 14.0095 15.6289 12.3403 16.8596 11.1096C18.0903 9.8789 19.7595 9.1875 21.5 9.1875Z" fill="#90944B"/>
</svg>
