<svg width="19" height="19" viewBox="0 0 19 19" fill="none" xmlns="http://www.w3.org/2000/svg">
<path d="M14.5196 6.45637C14.1935 6.45601 13.8724 6.53753 13.5859 6.69347C13.5003 6.42823 13.359 6.18433 13.1715 5.97809C12.984 5.77184 12.7546 5.60799 12.4988 5.49749C12.2429 5.38699 11.9663 5.33239 11.6877 5.33733C11.409 5.34227 11.1345 5.40665 10.8827 5.52616V3.37899C10.8827 2.85961 10.6764 2.3615 10.3092 1.99424C9.9419 1.62698 9.44379 1.42065 8.92441 1.42065C8.40502 1.42065 7.90691 1.62698 7.53965 1.99424C7.1724 2.3615 6.96607 2.85961 6.96607 3.37899V8.97423L6.6989 8.54549C6.56972 8.32299 6.39797 8.12811 6.19348 7.97199C5.98898 7.81586 5.75574 7.70154 5.50706 7.63556C5.00483 7.50229 4.47024 7.574 4.02088 7.8349C3.57152 8.09579 3.24421 8.52451 3.11094 9.02674C2.97768 9.52896 3.04939 10.0636 3.31028 10.5129L3.63691 11.0885C6.04356 15.3311 7.03951 17.0873 10.3232 17.0873C11.955 17.0855 13.5194 16.4364 14.6732 15.2826C15.8271 14.1287 16.4761 12.5643 16.478 10.9326V8.4147C16.478 7.89532 16.2717 7.39721 15.9044 7.02995C15.5371 6.66269 15.039 6.45637 14.5196 6.45637ZM15.3589 10.9326C15.3574 12.2677 14.8264 13.5477 13.8824 14.4917C12.9383 15.4358 11.6583 15.9668 10.3232 15.9683C7.69135 15.9683 6.97726 14.7093 4.61048 10.5353L4.28246 9.95689V9.95339C4.17108 9.76083 4.14071 9.53192 4.19802 9.31697C4.25533 9.10203 4.39563 8.91862 4.5881 8.80707C4.71558 8.73322 4.86041 8.6946 5.00774 8.69516C5.15527 8.69495 5.30026 8.73362 5.42808 8.8073C5.55591 8.88097 5.66205 8.98704 5.73582 9.11481C5.73867 9.12041 5.74194 9.12579 5.74561 9.13089L7.0514 11.2291C7.11584 11.332 7.21201 11.4111 7.32538 11.4546C7.43875 11.498 7.56318 11.5034 7.67989 11.4699C7.79659 11.4365 7.89924 11.3659 7.97234 11.269C8.04544 11.1721 8.08502 11.054 8.08512 10.9326V3.37899C8.08512 3.1564 8.17354 2.94292 8.33094 2.78552C8.48834 2.62813 8.70181 2.5397 8.92441 2.5397C9.147 2.5397 9.36047 2.62813 9.51787 2.78552C9.67527 2.94292 9.76369 3.1564 9.76369 3.37899V8.13494C9.76369 8.28334 9.82264 8.42565 9.92757 8.53058C10.0325 8.63551 10.1748 8.69446 10.3232 8.69446C10.4716 8.69446 10.6139 8.63551 10.7189 8.53058C10.8238 8.42565 10.8827 8.28334 10.8827 8.13494V7.29565C10.8827 7.07306 10.9712 6.85959 11.1286 6.70219C11.286 6.54479 11.4994 6.45637 11.722 6.45637C11.9446 6.45637 12.1581 6.54479 12.3155 6.70219C12.4729 6.85959 12.5613 7.07306 12.5613 7.29565V8.69446C12.5613 8.84286 12.6203 8.98518 12.7252 9.09011C12.8301 9.19504 12.9724 9.25399 13.1208 9.25399C13.2692 9.25399 13.4115 9.19504 13.5165 9.09011C13.6214 8.98518 13.6804 8.84286 13.6804 8.69446V8.4147C13.6804 8.19211 13.7688 7.97863 13.9262 7.82124C14.0836 7.66384 14.2971 7.57542 14.5196 7.57542C14.7422 7.57542 14.9557 7.66384 15.1131 7.82124C15.2705 7.97863 15.3589 8.19211 15.3589 8.4147V10.9326Z" fill="#1E1E1E"/>
</svg>
