<svg width="19" height="19" viewBox="0 0 19 19" fill="none" xmlns="http://www.w3.org/2000/svg">
<path d="M6.38472 6.50122L10.5625 7.5009C10.7963 7.32185 10.9828 7.11794 11.122 6.88915C11.2613 6.66037 11.3309 6.38682 11.3309 6.06852C11.3309 5.85963 11.2886 5.66069 11.2041 5.47169C11.1245 5.2827 11.0051 5.11857 10.846 4.97931C10.6868 4.84005 10.4879 4.73063 10.2492 4.65106C10.0154 4.56651 9.74186 4.52423 9.42853 4.52423C9.08535 4.52423 8.79191 4.56651 8.54821 4.65106C8.30948 4.73561 8.10308 4.8301 7.929 4.93455C7.7599 5.03402 7.61816 5.12603 7.50377 5.21058C7.38938 5.29513 7.2899 5.33741 7.20535 5.33741C7.06609 5.33741 6.95668 5.2628 6.8771 5.1136L6.52647 4.42725C6.89451 4.06915 7.32472 3.79561 7.8171 3.60661C8.30948 3.41762 8.8516 3.32312 9.44345 3.32312C9.97064 3.32312 10.4406 3.40021 10.8534 3.55439C11.2663 3.7036 11.6119 3.90503 11.8904 4.15868C12.1739 4.41233 12.3878 4.70825 12.532 5.04645C12.6812 5.37968 12.7558 5.73032 12.7558 6.09836C12.7558 6.4863 12.6986 6.8245 12.5842 7.11296C12.4699 7.40143 12.3182 7.65508 12.1292 7.87391L13.4646 8.18725L13.2855 8.88852L11.4503 8.45582C11.2613 8.58016 11.0623 8.69455 10.8534 8.79899C10.6446 8.89846 10.4332 8.99545 10.2193 9.08995L13.0841 9.76884L12.9125 10.4701L9.13758 9.57487C8.92371 9.67931 8.72229 9.7937 8.53329 9.91804C8.34927 10.0374 8.18763 10.1742 8.04837 10.3284C7.91408 10.4825 7.80715 10.6566 7.72758 10.8506C7.648 11.0445 7.60821 11.2684 7.60821 11.522C7.60821 12.0442 7.79472 12.4297 8.16774 12.6784C8.54075 12.927 9.05303 13.0514 9.70456 13.0514C10.1124 13.0514 10.4605 12.9967 10.749 12.8872C11.0424 12.7729 11.2886 12.6485 11.4876 12.5142C11.6915 12.3799 11.8606 12.2581 11.9949 12.1487C12.1292 12.0343 12.246 11.9771 12.3455 11.9771C12.4151 11.9771 12.4773 11.997 12.532 12.0368C12.5917 12.0716 12.6414 12.1163 12.6812 12.1711L13.099 12.8574C12.6961 13.2851 12.2112 13.6258 11.6442 13.8795C11.0773 14.1281 10.4456 14.2525 9.74932 14.2525C9.18234 14.2525 8.67504 14.1878 8.22742 14.0585C7.78477 13.9242 7.40927 13.7328 7.10091 13.4841C6.79752 13.2354 6.56625 12.9345 6.4071 12.5814C6.24795 12.2233 6.16837 11.8204 6.16837 11.3728C6.16837 11.1092 6.19821 10.868 6.25789 10.6492C6.32255 10.4303 6.40959 10.2314 6.519 10.0523C6.6334 9.87328 6.7652 9.71164 6.9144 9.56741C7.06858 9.4182 7.2352 9.28392 7.41424 9.16455L5.8252 8.78407L6.00424 8.0828L8.34678 8.64233C8.57059 8.53788 8.7944 8.43593 9.01821 8.33645C9.24202 8.23698 9.45837 8.13503 9.66726 8.03058L6.20567 7.20249L6.38472 6.50122Z" fill="#1E1E1E"/>
</svg>
