<svg width="19" height="19" viewBox="0 0 19 19" fill="none" xmlns="http://www.w3.org/2000/svg">
<path d="M15.3827 9.62704C15.3827 8.59751 16.2183 7.76196 17.2478 7.76196V7.01593C17.2478 4.0318 16.5017 3.28577 13.5176 3.28577H6.05731C3.07318 3.28577 2.32715 4.0318 2.32715 7.01593V7.38894C3.35667 7.38894 4.19223 8.2245 4.19223 9.25402C4.19223 10.2835 3.35667 11.1191 2.32715 11.1191V11.4921C2.32715 14.4762 3.07318 15.2223 6.05731 15.2223H13.5176C16.5017 15.2223 17.2478 14.4762 17.2478 11.4921C16.2183 11.4921 15.3827 10.6566 15.3827 9.62704Z" stroke="#1E1E1E" stroke-width="1.19365" stroke-linecap="round" stroke-linejoin="round"/>
<path d="M7.5498 11.3055L12.026 6.82935" stroke="#1E1E1E" stroke-width="1.19365" stroke-linecap="round" stroke-linejoin="round"/>
<path d="M12.022 11.3055H12.0287" stroke="#1E1E1E" stroke-width="1.19365" stroke-linecap="round" stroke-linejoin="round"/>
<path d="M7.54541 7.20239H7.55211" stroke="#1E1E1E" stroke-width="1.19365" stroke-linecap="round" stroke-linejoin="round"/>
</svg>
